HIERARCHY
ROOT SpineBase
{
  OFFSET 0.000000 0.000000 0.000000
  CHANNELS 6 Xposition Yposition Zposition Zrotation Xrotation Yrotation
  JOINT SpineMid
  {
    OFFSET 0.000000 30.990566 0.000000
    CHANNELS 3 Zrotation Xrotation Yrotation
    JOINT SpineShoulder
    {
      OFFSET -0.052882 22.963313 -0.721020
      CHANNELS 3 Zrotation Xrotation Yrotation
      JOINT Neck
      {
        OFFSET -0.062239 7.573937 -0.552561
        CHANNELS 3 Zrotation Xrotation Yrotation
        JOINT Head
        {
          OFFSET 0.774086 14.883852 -2.087559
          CHANNELS 3 Zrotation Xrotation Yrotation
          End Site
          {
            OFFSET 0 0 0
          }
        }
      }
      JOINT ShoulderLeft
      {
        OFFSET -17.339481 -2.684011 0.360660
        CHANNELS 3 Zrotation Xrotation Yrotation
        JOINT ElbowLeft
        {
          OFFSET -8.311982 -31.267135 -1.725120
          CHANNELS 3 Zrotation Xrotation Yrotation
          JOINT WristLeft
          {
            OFFSET -2.178718 -23.549078 -6.700760
            CHANNELS 3 Zrotation Xrotation Yrotation
            JOINT HandLeft
            {
              OFFSET -0.052125 -2.006909 1.919481
              CHANNELS 3 Zrotation Xrotation Yrotation
              JOINT HandTipLeft
              {
                OFFSET -0.648206 -7.499970 -0.642565
                CHANNELS 3 Zrotation Xrotation Yrotation
                End Site
                {
                  OFFSET 0 0 0
                }
              }
              JOINT ThumbLeft
              {
                OFFSET 2.811101 -1.603977 -2.546902
                CHANNELS 3 Zrotation Xrotation Yrotation
                End Site
                {
                  OFFSET 0 0 0
                }
              }
            }
          }
        }
      }
      JOINT ShoulderRight
      {
        OFFSET 16.632007 -3.653822 -1.183146
        CHANNELS 3 Zrotation Xrotation Yrotation
        JOINT ElbowRight
        {
          OFFSET 7.371215 -30.555670 2.307451
          CHANNELS 3 Zrotation Xrotation Yrotation
          JOINT WristRight
          {
            OFFSET 4.430401 -23.813523 -3.091825
            CHANNELS 3 Zrotation Xrotation Yrotation
            JOINT HandRight
            {
              OFFSET 1.676349 -5.204852 -0.564517
              CHANNELS 3 Zrotation Xrotation Yrotation
              JOINT HandTipRight
              {
                OFFSET -0.771564 -4.873397 0.127872
                CHANNELS 3 Zrotation Xrotation Yrotation
                End Site
                {
                  OFFSET 0 0 0
                }
              }
              JOINT ThumbRight
              {
                OFFSET 1.627811 1.265577 -2.274532
                CHANNELS 3 Zrotation Xrotation Yrotation
                End Site
                {
                  OFFSET 0 0 0
                }
              }
            }
          }
        }
      }
    }
  }
  JOINT HipLeft
  {
    OFFSET -8.162190 0.375613 -3.160645
    CHANNELS 3 Zrotation Xrotation Yrotation
    JOINT KneeLeft
    {
      OFFSET -3.232641 -31.865986 4.230417
      CHANNELS 3 Zrotation Xrotation Yrotation
      JOINT AnkleLeft
      {
        OFFSET 0.094027 -38.193717 9.916898
        CHANNELS 3 Zrotation Xrotation Yrotation
        JOINT FootLeft
        {
          OFFSET -0.889136 -3.601530 -12.965199
          CHANNELS 3 Zrotation Xrotation Yrotation
          End Site
          {
            OFFSET 0 0 0
          }
        }
      }
    }
  }
  JOINT HipRight
  {
    OFFSET 6.804971 0.472530 -3.920566
    CHANNELS 3 Zrotation Xrotation Yrotation
    JOINT KneeRight
    {
      OFFSET 8.671582 -33.864357 -1.188989
      CHANNELS 3 Zrotation Xrotation Yrotation
      JOINT AnkleRight
      {
        OFFSET 10.887851 -37.728382 12.744544
        CHANNELS 3 Zrotation Xrotation Yrotation
        JOINT FootRight
        {
          OFFSET -1.198352 -3.600150 -12.900860
          CHANNELS 3 Zrotation Xrotation Yrotation
          End Site
          {
            OFFSET 0 0 0
          }
        }
      }
    }
  }
}
MOTION
Frames: 9
Frame Time: 0.033333
79.733561 78.181607 375.019603 -2.189521 -4.801762 40.988647 0.152349 -0.256692 -41.164698 0.295213 -0.056951 -0.099946 26.180775 12.102602 -0.533362 0.000000 0.000000 0.000000 6.691357 -6.429742 2.960985 -35.715970 39.825016 16.247023 1.211120 44.749457 -76.880512 39.740100 11.927054 80.883419 0.000000 0.000000 0.000000 0.000000 0.000000 0.000000 -1.140751 22.385112 4.858774 -60.155138 -0.651428 -3.523342 -65.208301 -3.055607 -29.499968 54.084520 30.976949 1.565735 0.000000 0.000000 0.000000 0.000000 0.000000 0.000000 11.666455 12.083522 -43.455476 24.698028 -3.129928 10.876352 -29.262895 -11.624894 14.571002 0.000000 0.000000 0.000000 1.172445 18.098640 -37.484284 18.496474 -23.058785 -1.849573 -6.070654 -5.532630 20.716138 0.000000 0.000000 0.000000
78.068455 77.800409 373.405835 -1.159172 -5.057694 45.075545 0.178443 -0.306225 -45.179665 0.298342 -0.055501 -0.056366 29.768232 15.657704 -1.829461 0.000000 0.000000 0.000000 6.540407 -4.550978 2.332119 -42.623611 41.987803 20.434476 11.758306 45.692150 -73.366158 36.802078 -5.533750 75.985782 0.000000 0.000000 0.000000 0.000000 0.000000 0.000000 -3.836063 25.032406 5.843489 -68.628633 -6.431910 -12.111557 -63.760814 -3.143776 -15.611295 53.655870 15.638794 -5.424396 0.000000 0.000000 0.000000 0.000000 0.000000 0.000000 10.149063 12.371044 -47.489576 27.889352 3.014720 10.412664 -31.032975 -21.565750 6.991892 0.000000 0.000000 0.000000 -1.230644 26.173153 -39.556579 29.507631 -23.715748 1.741892 -8.595450 -12.372508 18.157562 0.000000 0.000000 0.000000
76.306971 76.964588 371.561079 0.244632 -5.334505 47.486818 0.186904 -0.351005 -47.485327 0.284086 -0.060749 0.001228 32.775079 19.156027 -3.472816 0.000000 0.000000 0.000000 5.082743 -5.838571 2.784455 -48.394440 49.905344 26.330453 22.683558 50.101244 -60.284828 43.253885 -16.776945 71.420054 0.000000 0.000000 0.000000 0.000000 0.000000 0.000000 -6.806752 26.812916 6.627589 -77.560455 -11.691481 -22.306393 -71.066564 -3.302170 -62.730904 43.719239 52.685544 26.845458 0.000000 0.000000 0.000000 0.000000 0.000000 0.000000 8.491575 11.662044 -49.495713 25.220720 12.936537 7.053803 -29.854028 -36.891561 -2.470281 0.000000 0.000000 0.000000 -5.704837 33.777296 -39.394878 37.891278 -19.761437 4.405864 -9.006219 -23.071996 17.849419 0.000000 0.000000 0.000000
74.647884 75.884476 369.748688 1.839438 -5.730588 48.897188 0.199035 -0.355714 -48.766435 0.244442 -0.031421 0.063907 37.561527 22.520045 -5.700091 0.000000 0.000000 0.000000 3.921837 -4.015778 2.209173 -50.083240 57.311110 28.565082 22.714560 51.960706 -41.196883 46.340447 -29.654224 65.237319 0.000000 0.000000 0.000000 0.000000 0.000000 0.000000 -10.641610 27.994170 7.452942 -85.529534 -16.429106 -33.944960 -55.089921 -10.822864 -99.523704 -13.708910 50.775632 89.510169 0.000000 0.000000 0.000000 0.000000 0.000000 0.000000 6.964600 10.095407 -50.248468 17.518331 26.777993 2.490584 -26.793457 -60.006167 -14.071955 0.000000 0.000000 0.000000 -11.287137 39.726256 -37.774405 41.210636 -11.821449 5.192001 -7.914947 -31.120729 18.004829 0.000000 0.000000 0.000000
72.691260 74.618243 367.512240 3.423017 -5.934468 52.358335 0.196191 -0.344150 -52.093362 0.188817 0.001688 0.125848 42.348620 26.124040 -8.542247 0.000000 0.000000 0.000000 3.943036 -0.450738 0.880050 -48.937363 64.131510 27.386670 12.700247 48.831312 -6.150567 22.201938 -41.760295 28.043645 0.000000 0.000000 0.000000 0.000000 0.000000 0.000000 -14.687650 27.588131 7.879115 -92.947706 -19.472775 -44.355365 -39.466133 -16.430177 -96.276642 -9.764279 42.819880 81.091940 0.000000 0.000000 0.000000 0.000000 0.000000 0.000000 5.708282 6.657285 -52.729205 4.543933 44.440334 -0.706810 -74.270365 -88.355490 -76.870721 0.000000 0.000000 0.000000 -15.435051 44.193631 -38.869096 40.664125 -1.232457 5.133602 -5.338258 -37.487488 20.596312 0.000000 0.000000 0.000000
70.347055 73.389513 364.819121 5.002649 -5.995382 57.349704 0.180312 -0.355530 -56.950948 0.133994 0.036910 0.188240 43.686013 29.358891 -10.957575 0.000000 0.000000 0.000000 4.689350 4.386375 -1.143172 -37.563320 68.833490 16.643226 0.250637 40.248594 31.751868 0.478452 -29.589326 -18.468811 0.000000 0.000000 0.000000 0.000000 0.000000 0.000000 -19.439281 26.019998 8.026631 -97.347795 -22.462140 -53.566147 -29.171676 -16.993799 -86.995733 -3.584525 43.819654 70.683462 0.000000 0.000000 0.000000 0.000000 0.000000 0.000000 5.096453 2.250192 -56.641605 -24.722742 61.105438 6.624675 168.365869 -65.491897 138.573714 0.000000 0.000000 0.000000 -18.045547 47.034405 -42.736964 36.624255 10.438907 4.844805 -0.760232 -40.749441 25.507371 0.000000 0.000000 0.000000
67.449391 72.134716 362.196661 6.394263 -6.246252 63.017117 0.140991 -0.290228 -62.488974 0.085843 0.049869 0.238980 44.996761 32.233653 -13.404425 0.000000 0.000000 0.000000 5.665499 10.918746 -3.963007 -20.907925 68.531743 1.387103 -0.271579 20.254404 72.353682 7.476330 -8.072888 -64.278948 0.000000 0.000000 0.000000 0.000000 0.000000 0.000000 -23.283285 23.689202 7.622400 -100.300039 -24.549177 -59.514752 -22.003310 -13.373545 -66.227223 21.943754 39.824121 37.663274 0.000000 0.000000 0.000000 0.000000 0.000000 0.000000 5.014054 -2.571422 -61.218468 -50.933340 66.634479 18.986595 170.193818 -55.244090 132.490064 0.000000 0.000000 0.000000 -18.485119 50.320430 -47.844091 33.088763 19.464903 5.667360 1.852922 -40.823906 31.443983 0.000000 0.000000 0.000000
64.070667 71.426901 359.211283 7.793560 -6.232372 66.486555 0.111521 -0.215531 -65.838457 0.035302 0.062236 0.291388 46.373006 33.216651 -14.777857 0.000000 0.000000 0.000000 7.223028 17.579924 -7.344260 -7.918887 63.513086 -9.513056 28.419229 -3.739174 117.174077 45.664696 -1.896594 -124.317658 0.000000 0.000000 0.000000 0.000000 0.000000 0.000000 -27.376921 20.812419 6.933426 -101.354197 -25.867187 -62.264569 -15.922355 -8.846364 -48.731280 38.871978 28.934831 14.181929 0.000000 0.000000 0.000000 0.000000 0.000000 0.000000 4.341994 -7.880399 -63.488439 -66.404236 66.733285 25.016457 162.839625 -54.047386 135.489580 0.000000 0.000000 0.000000 -20.028515 51.031816 -51.157351 29.236990 26.385807 6.777973 5.005862 -43.487666 36.413743 0.000000 0.000000 0.000000
60.549672 71.419503 356.424488 9.500719 -5.955039 68.725322 0.003283 -0.194465 -67.944381 -0.026016 0.055150 0.359230 53.001102 33.821207 -17.670675 0.000000 0.000000 0.000000 8.593454 23.191416 -10.732184 -5.246134 58.007898 -11.369743 57.809234 -10.723468 140.972871 78.309939 -11.706889 -162.242145 0.000000 0.000000 0.000000 0.000000 0.000000 0.000000 -30.435584 17.758171 5.780927 -102.205026 -26.254432 -61.394396 -10.137477 -3.207347 -31.621907 53.210519 11.324644 -6.520779 0.000000 0.000000 0.000000 0.000000 0.000000 0.000000 3.504688 -11.451637 -64.793949 -63.158253 63.495759 18.654368 147.468944 -63.075700 127.710281 0.000000 0.000000 0.000000 -21.700935 50.221105 -53.711470 26.009552 29.563286 6.965073 7.871022 -43.628038 38.305851 0.000000 0.000000 0.000000
